<svg xmlns="http://www.w3.org/2000/svg" viewBox="-40 -140 524.3898305084746 180">
  <rect x="-40" y="-140" width="524.3898305084746" height="180" fill="#0A1F33"/>
  <path d="M -59,0 L -59,-100 L -44,-100 L 0,-53 L 44,-100 L 59,-100 L 59,0 L 44,0 L 44,-82 L 0,-29 L -44,-82 L -44,0 Z" fill="#FFFFFF" transform="translate(59.00, 0.00)"/>
  <path d="M297 708V688Q263 687 245.5 680.5Q228 674 222.0 656.5Q216 639 216 602V106Q216 70 222.0 52.0Q228 34 245.5 28.0Q263 22 297 20V0Q274 2 239.5 2.5Q205 3 170 3Q131 3 97.0 2.5Q63 2 42 0V20Q76 22 93.5 28.0Q111 34 117.0 52.0Q123 70 123 106V602Q123 639 117.0 656.5Q111 674 93.5 680.5Q76 687 42 688V708Q63 707 97.0 706.0Q131 705 170 705Q205 705 239.5 706.0Q274 707 297 708Z" fill="#FFFFFF" transform="translate(156.00, 0.00) scale(0.141243, -0.141243)"/>
  <path d="M42 708Q63 707 97.0 706.0Q131 705 164 705Q211 705 254.0 706.0Q297 707 315 707Q396 707 449.5 684.0Q503 661 529.5 621.5Q556 582 556 533Q556 503 544.0 469.0Q532 435 502.5 405.0Q473 375 422.0 355.5Q371 336 293 336H197V356H283Q354 356 391.5 378.5Q429 401 442.5 438.5Q456 476 456 522Q456 601 418.5 644.5Q381 688 290 688Q244 688 230.0 671.0Q216 654 216 602V106Q216 70 222.0 52.0Q228 34 245.5 28.0Q263 22 297 20V0Q274 2 239.5 2.5Q205 3 170 3Q131 3 97.0 2.5Q63 2 42 0V20Q76 22 93.5 28.0Q111 34 117.0 52.0Q123 70 123 106V602Q123 639 117.0 656.5Q111 674 93.5 680.5Q76 687 42 688ZM201 353Q255 351 286.0 348.5Q317 346 336.5 344.0Q356 342 374 339Q441 328 470.5 298.5Q500 269 514 207L539 105Q549 61 559.5 41.5Q570 22 592 23Q609 24 620.5 34.0Q632 44 645 61L660 50Q639 19 616.5 2.5Q594 -14 553 -14Q516 -14 488.0 8.0Q460 30 446 94L424 194Q415 237 403.5 268.5Q392 300 371.5 318.0Q351 336 311 336H203Z" fill="#FFFFFF" transform="translate(233.88, 0.00) scale(0.141243, -0.141243)"/>
  <path d="M323 713 567 84Q582 46 601.0 33.5Q620 21 636 20V0Q616 2 587.0 2.5Q558 3 529 3Q490 3 456.0 2.5Q422 2 401 0V20Q452 22 466.0 37.5Q480 53 460 104L274 601L290 614L116 162Q100 122 97.0 94.5Q94 67 102.5 51.0Q111 35 131.5 28.0Q152 21 183 20V0Q155 2 124.5 2.5Q94 3 68 3Q43 3 25.5 2.5Q8 2 -7 0V20Q13 25 34.0 43.5Q55 62 72 107L307 713Q311 713 315.0 713.0Q319 713 323 713ZM445 288V268H147L157 288Z" fill="#FFFFFF" transform="translate(355.41, 0.00) scale(0.141243, -0.141243)"/>
</svg>